<svg width="62" height="92" viewBox="0 0 62 92" fill="none" xmlns="http://www.w3.org/2000/svg">
<path d="M22.3848 91.8038C16.0519 92.4824 10.9175 91.4006 6.98149 88.5584C3.1432 85.5932 0.885517 80.8266 0.208429 74.2586C-0.0669969 71.5869 -0.0694543 68.8859 0.201058 66.1557L6.14051 8.11792L29.725 5.59063L23.7856 63.6284C23.5265 66.4699 23.4601 68.5029 23.5864 69.7275C23.9651 73.4011 26.0106 75.039 29.723 74.6412C34.7456 74.103 39.0533 70.3774 42.646 63.4644C46.3479 56.5397 49.05 48.4841 50.7524 39.2976C52.4549 30.111 52.9733 22.2894 52.3076 15.8328C52.1466 16.4128 51.4828 16.9341 50.3162 17.3968C49.1381 17.7481 48.1123 17.9706 47.2388 18.0642C45.3826 18.2631 43.8167 17.5305 42.5413 15.8663C41.375 14.1905 40.6828 12.295 40.4647 10.1799C40.1893 7.50818 40.7844 5.24966 42.2501 3.40433C43.825 1.54729 46.3048 0.437412 49.6896 0.0746998C53.2928 -0.311413 56.0567 0.799296 57.9815 3.40683C59.8947 5.90305 61.0694 9.26628 61.5055 13.4965C62.1977 20.2113 62.1632 27.3326 61.4021 34.8604C61.0275 38.5646 60.477 42.3672 59.7506 46.2682C59.7172 46.4447 59.6834 46.6209 59.6492 46.7967C57.4097 58.2939 53.2555 68.3585 47.1866 76.9905C41.0249 85.7545 32.7576 90.6923 22.3848 91.8038Z" fill="#53884A"/>
</svg>
